_________________________  Visit us at _________________________
  
http://p2pdl.com  ____________________________  http://p2pdl.com

 
http://ultraimg.com/images/5danY.jpg


The Flying Machine 2011 BRRip 720p x264 AAC - PRiSTiNE


Genre: Drama | History | War 
Plot: 'The Flying Machine' is a 3D live action/animation family feature film about a stressed out
business-woman, Georgie, who takes her two children to see the animation film 'Magic Piano', which
is being performed live by world famous pianist Lang Lang. A magical event occurs and Georgie's kids 
get transported inside the animation world, and Georgie has to pursue them, with a little help from
Maestro Lang Lang.
Director: Martin Clapp, Dorota Kobiela, Geoff Lindsey.
Stars: Heather Graham, Lang Lang, Kizzy Mee.
Rated: N/a

Info: 
http://www.imdb.com/title/tt2630134/


Trailer:

Format                         : MPEG-4
File size                      : 501 MiB
Duration                       : 1h 16mn
Overall bit rate mode          : Variable
Overall bit rate               : 919 Kbps

Video
Format                         : AVC
Format/Info                    : Advanced Video Codec
Format profile                 : High 10@L4.1
Bit rate                       : 836 Kbps
Width                          : 1 280 pixels
Height                         : 720 pixels
Display aspect ratio           : 16:9
Frame rate mode                : Constant
Frame rate                     : 23.976 fps
Bit depth                      : 10 bits
Scan type                      : Progressive
Bits/(Pixel*Frame)             : 0.038
Stream size                    : 456 MiB (91%)

Audio
Format                         : AAC
Format/Info                    : Advanced Audio Codec
Bit rate                       : 80.0 Kbps
Channel(s)                     : 2 channels
Channel positions              : Front: L R
Sampling rate                  : 48.0 KHz / 24.0 KHz
Stream size                    : 43.7 MiB (9%)
Language                       : English

Subtitle                       : Yes (English)
Source                         : 720p.BluRay.DTS.x264-IRONCLUB (Thanks)

Screenshots:
 
http://www.ultraimg.com/images/8m05.png 
http://www.ultraimg.com/images/OlyDI.png 
http://www.ultraimg.com/images/IdZJ.png 
http://www.ultraimg.com/images/ydXT.png 
http://www.ultraimg.com/images/C6zY2.png 
http://www.ultraimg.com/images/vYA6.png

----------------------------------------------------------------------------------------------------


Encoded using revolutionary 10bit encoding, which enables us to provide you more crispier 
and sharper images at small sizes, just make sure you follow our instructions without a fault.
Recommend to you to use latest version of VLC player. Install K-Lite Codec Pack or shark007 codecs
in case of any kind of problem in playback (For non-VLC Media Player users). Alternatively, install
Core AVC codecs, the fastest decoder that there is coupled with Community Center Codec Pack and play
on Windows Media Player Classic. Check sample to be sure.
Enjoy!

Encoder Notes:Looking For Early Access To Anything You Can Provide DVDScr, R5, DVDR, BluRay, Direct
Audio, Music Releases and Seedboxes. We require dedicated servers, so as to do more 
and fast releases of movies.
If You Got anything to offer please contact us at "prg@hush.com".

Face book Fan Page:   
http://www.fb.me/p2pdl